<svg width="13" height="14" viewBox="0 0 13 14" fill="none" xmlns="http://www.w3.org/2000/svg">
<path fill-rule="evenodd" clip-rule="evenodd" d="M12.558 4.669C12.5786 4.73034 12.5927 4.79369 12.6 4.858V4.9V9.1C12.6 10.2598 11.6598 11.2 10.5 11.2H9.8V11.9C9.8 13.0598 8.8598 14 7.7 14H2.1C0.940202 14 0 13.0598 0 11.9V4.9C0 3.7402 0.940202 2.8 2.1 2.8H2.8V2.1C2.8 0.940202 3.7402 0 4.9 0H7.735C7.81636 0.0100409 7.89489 0.0362189 7.966 0.077C7.9869 0.0740321 8.00811 0.0740321 8.029 0.077C8.10097 0.110657 8.16713 0.155551 8.225 0.21L12.425 4.41C12.4794 4.46787 12.5243 4.53403 12.558 4.606V4.669ZM7.70004 12.6001C8.08664 12.6001 8.40004 12.2867 8.40004 11.9001V11.2001H4.90004C3.74024 11.2001 2.80004 10.2599 2.80004 9.10013V4.20013H2.10004C1.71344 4.20013 1.40004 4.51353 1.40004 4.90013V11.9001C1.40004 12.2867 1.71344 12.6001 2.10004 12.6001H7.70004ZM8.39997 2.38711L10.213 4.20011H9.09997C8.71337 4.20011 8.39997 3.88671 8.39997 3.50011V2.38711ZM10.5 9.80004C10.8866 9.80004 11.2 9.48664 11.2 9.10004V5.60004H9.10003C7.94023 5.60004 7.00003 4.65984 7.00003 3.50004V1.40004H4.90003C4.51343 1.40004 4.20003 1.71344 4.20003 2.10004V9.10004C4.20003 9.48664 4.51343 9.80004 4.90003 9.80004H10.5Z" fill="#00A3FF"/>
</svg>
