<svg width="24" height="24" viewBox="0 0 24 24" fill="none" xmlns="http://www.w3.org/2000/svg">
<path d="M12 24C18.6274 24 24 18.6274 24 12C24 5.37258 18.6274 0 12 0C5.37258 0 0 5.37258 0 12C0 18.6274 5.37258 24 12 24Z" fill="#F4F6F8"/>
<path opacity="0.6" d="M11.999 3.75V9.84813L17.2469 12.1512L11.999 3.75Z" fill="black"/>
<path d="M11.9986 3.75L6.75 12.1512L11.9986 9.84813V3.75Z" fill="black"/>
<path opacity="0.6" d="M11.999 16.1028V20.2464L17.2504 13.1108L11.999 16.1028Z" fill="black"/>
<path d="M11.9986 20.2464V16.1022L6.75 13.1108L11.9986 20.2464Z" fill="black"/>
<path opacity="0.2" d="M11.999 15.144L17.2469 12.1514L11.999 9.84961V15.144Z" fill="black"/>
<path opacity="0.6" d="M6.75 12.1514L11.9986 15.144V9.84961L6.75 12.1514Z" fill="black"/>
</svg>
