<svg width="83" height="20" viewBox="0 0 83 20" fill="none" xmlns="http://www.w3.org/2000/svg">
<path d="M23.9998 4.58984H26.156V13.8438H31.4568V15.9102H23.9998V4.58984Z" fill="#080E14"/>
<path d="M40.8825 4.58984H43.0388V15.9102H40.8825V4.58984Z" fill="#080E14"/>
<path d="M53.3608 4.58984H56.9545C57.6973 4.58984 58.404 4.74557 59.0749 5.05703C59.7457 5.35651 60.3387 5.7638 60.8538 6.27891C61.3689 6.79401 61.7762 7.39297 62.0756 8.07578C62.3751 8.75859 62.5249 9.48333 62.5249 10.25C62.5249 11.0167 62.3751 11.7414 62.0756 12.4242C61.7762 13.107 61.3689 13.706 60.8538 14.2211C60.3387 14.7362 59.7457 15.1495 59.0749 15.4609C58.404 15.7604 57.6973 15.9102 56.9545 15.9102H53.3608V4.58984ZM56.9545 13.8438C57.3978 13.8438 57.823 13.7479 58.2303 13.5562C58.6496 13.3646 59.015 13.107 59.3264 12.7836C59.6499 12.4602 59.9014 12.0828 60.0811 11.6516C60.2728 11.2083 60.3686 10.7411 60.3686 10.25C60.3686 9.75885 60.2728 9.29766 60.0811 8.86641C59.9014 8.42318 59.6499 8.03984 59.3264 7.71641C59.015 7.39297 58.6496 7.13542 58.2303 6.94375C57.823 6.75208 57.3978 6.65625 56.9545 6.65625H55.5171V13.8438H56.9545Z" fill="#080E14"/>
<path d="M77.078 16C76.3353 16 75.6285 15.8563 74.9577 15.5688C74.2988 15.2693 73.7178 14.862 73.2147 14.3469C72.7236 13.8198 72.3283 13.2089 72.0288 12.5141C71.7413 11.8193 71.5975 11.0646 71.5975 10.25C71.5975 9.4474 71.7413 8.6987 72.0288 8.00391C72.3283 7.29714 72.7236 6.6862 73.2147 6.17109C73.7178 5.64401 74.2988 5.23672 74.9577 4.94922C75.6285 4.64974 76.3353 4.5 77.078 4.5C77.8207 4.5 78.5215 4.64974 79.1803 4.94922C79.8512 5.23672 80.4322 5.64401 80.9233 6.17109C81.4264 6.6862 81.8217 7.29714 82.1092 8.00391C82.4087 8.6987 82.5585 9.4474 82.5585 10.25C82.5585 11.0646 82.4087 11.8193 82.1092 12.5141C81.8217 13.2089 81.4264 13.8198 80.9233 14.3469C80.4322 14.862 79.8512 15.2693 79.1803 15.5688C78.5215 15.8563 77.8207 16 77.078 16ZM77.078 13.9336C77.5212 13.9336 77.9465 13.8438 78.3538 13.6641C78.7611 13.4844 79.1144 13.2328 79.4139 12.9094C79.7134 12.574 79.953 12.1846 80.1327 11.7414C80.3124 11.2862 80.4022 10.7891 80.4022 10.25C80.4022 9.71094 80.3124 9.21979 80.1327 8.77656C79.953 8.32135 79.7134 7.93203 79.4139 7.60859C79.1144 7.27318 78.7611 7.01563 78.3538 6.83594C77.9465 6.65625 77.5212 6.56641 77.078 6.56641C76.6228 6.56641 76.1915 6.65625 75.7842 6.83594C75.3889 7.01563 75.0415 7.27318 74.7421 7.60859C74.4426 7.93203 74.203 8.32135 74.0233 8.77656C73.8436 9.21979 73.7538 9.71094 73.7538 10.25C73.7538 10.7891 73.8436 11.2862 74.0233 11.7414C74.203 12.1846 74.4426 12.574 74.7421 12.9094C75.0415 13.2328 75.3889 13.4844 75.7842 13.6641C76.1915 13.8438 76.6228 13.9336 77.078 13.9336Z" fill="#080E14"/>
<path fill-rule="evenodd" clip-rule="evenodd" d="M7.00634 0L11.9559 7.74771L7.00607 10.6324L2.05681 7.74763L7.00634 0ZM3.57197 7.38126L7.00634 2.00535L10.4407 7.38128L7.00611 9.3829L3.57197 7.38126Z" fill="#00A3FF"/>
<path d="M6.99901 12.3353L1.25735 8.98872L1.10056 9.23415C-0.667855 12.0023 -0.272907 15.6276 2.0501 17.9502C4.78372 20.6833 9.21579 20.6833 11.9494 17.9502C14.2724 15.6276 14.6674 12.0023 12.8989 9.23415L12.7421 8.98865L6.99924 12.3355L6.99901 12.3353Z" fill="#00A3FF"/>
</svg>
