<svg width="40" height="40" viewBox="0 0 40 40" fill="none" xmlns="http://www.w3.org/2000/svg">
<path d="M34.413 4.45703L21.9209 13.7351L24.231 8.26117L34.413 4.45703Z" fill="#E2761B" stroke="#E2761B" stroke-linecap="round" stroke-linejoin="round"/>
<path d="M5.57446 4.45703L17.9662 13.823L15.7691 8.26117L5.57446 4.45703Z" fill="#E4761B" stroke="#E4761B" stroke-linecap="round" stroke-linejoin="round"/>
<path d="M29.9184 25.9639L26.5913 31.0612L33.71 33.0197L35.7564 26.0769L29.9184 25.9639Z" fill="#E4761B" stroke="#E4761B" stroke-linecap="round" stroke-linejoin="round"/>
<path d="M4.2561 26.0769L6.29 33.0197L13.4086 31.0612L10.0816 25.9639L4.2561 26.0769Z" fill="#E4761B" stroke="#E4761B" stroke-linecap="round" stroke-linejoin="round"/>
<path d="M13.0069 17.3511L11.0232 20.3517L18.0916 20.6656L17.8405 13.0698L13.0069 17.3511Z" fill="#E4761B" stroke="#E4761B" stroke-linecap="round" stroke-linejoin="round"/>
<path d="M26.9803 17.3506L22.0839 12.9814L21.9207 20.6651L28.9765 20.3512L26.9803 17.3506Z" fill="#E4761B" stroke="#E4761B" stroke-linecap="round" stroke-linejoin="round"/>
<path d="M13.4087 31.061L17.6523 28.9895L13.9862 26.127L13.4087 31.061Z" fill="#E4761B" stroke="#E4761B" stroke-linecap="round" stroke-linejoin="round"/>
<path d="M22.3352 28.9895L26.5913 31.061L26.0012 26.127L22.3352 28.9895Z" fill="#E4761B" stroke="#E4761B" stroke-linecap="round" stroke-linejoin="round"/>
<path d="M26.5916 31.0608L22.3354 28.9893L22.6744 31.7639L22.6368 32.9315L26.5916 31.0608Z" fill="#D7C1B3" stroke="#D7C1B3" stroke-linecap="round" stroke-linejoin="round"/>
<path d="M13.4089 31.0608L17.3637 32.9315L17.3386 31.7639L17.6525 28.9893L13.4089 31.0608Z" fill="#D7C1B3" stroke="#D7C1B3" stroke-linecap="round" stroke-linejoin="round"/>
<path d="M17.4262 24.2939L13.8857 23.2519L16.3842 22.1094L17.4262 24.2939Z" fill="#233447" stroke="#233447" stroke-linecap="round" stroke-linejoin="round"/>
<path d="M22.561 24.2939L23.6031 22.1094L26.1141 23.2519L22.561 24.2939Z" fill="#233447" stroke="#233447" stroke-linecap="round" stroke-linejoin="round"/>
<path d="M13.4088 31.0612L14.0115 25.9639L10.0818 26.0769L13.4088 31.0612Z" fill="#CD6116" stroke="#CD6116" stroke-linecap="round" stroke-linejoin="round"/>
<path d="M25.9888 25.9639L26.5914 31.0612L29.9185 26.0769L25.9888 25.9639Z" fill="#CD6116" stroke="#CD6116" stroke-linecap="round" stroke-linejoin="round"/>
<path d="M28.977 20.3521L21.9211 20.6659L22.574 24.2943L23.6161 22.1097L26.127 23.2522L28.977 20.3521Z" fill="#CD6116" stroke="#CD6116" stroke-linecap="round" stroke-linejoin="round"/>
<path d="M13.886 23.2522L16.3969 22.1097L17.4265 24.2943L18.0919 20.6659L11.0234 20.3521L13.886 23.2522Z" fill="#CD6116" stroke="#CD6116" stroke-linecap="round" stroke-linejoin="round"/>
<path d="M11.0234 20.3521L13.9864 26.1273L13.886 23.2522L11.0234 20.3521Z" fill="#E4751F" stroke="#E4751F" stroke-linecap="round" stroke-linejoin="round"/>
<path d="M26.1273 23.2522L26.0017 26.1273L28.9772 20.3521L26.1273 23.2522Z" fill="#E4751F" stroke="#E4751F" stroke-linecap="round" stroke-linejoin="round"/>
<path d="M18.0919 20.666L17.4265 24.2944L18.2551 28.5756L18.4435 22.9385L18.0919 20.666Z" fill="#E4751F" stroke="#E4751F" stroke-linecap="round" stroke-linejoin="round"/>
<path d="M21.921 20.666L21.582 22.9259L21.7327 28.5756L22.5739 24.2944L21.921 20.666Z" fill="#E4751F" stroke="#E4751F" stroke-linecap="round" stroke-linejoin="round"/>
<path d="M22.5736 24.2935L21.7324 28.5748L22.3351 28.9891L26.0011 26.1266L26.1266 23.2515L22.5736 24.2935Z" fill="#F6851B" stroke="#F6851B" stroke-linecap="round" stroke-linejoin="round"/>
<path d="M13.8857 23.2515L13.9862 26.1266L17.6522 28.9891L18.2549 28.5748L17.4262 24.2935L13.8857 23.2515Z" fill="#F6851B" stroke="#F6851B" stroke-linecap="round" stroke-linejoin="round"/>
<path d="M22.6368 32.9312L22.6745 31.7636L22.3606 31.4874H17.6274L17.3386 31.7636L17.3637 32.9312L13.4089 31.0605L14.79 32.1905L17.5897 34.1365H22.3983L25.2106 32.1905L26.5916 31.0605L22.6368 32.9312Z" fill="#C0AD9E" stroke="#C0AD9E" stroke-linecap="round" stroke-linejoin="round"/>
<path d="M22.3352 28.9895L21.7326 28.5752H18.2549L17.6523 28.9895L17.3384 31.7641L17.6271 31.4879H22.3603L22.6742 31.7641L22.3352 28.9895Z" fill="#161616" stroke="#161616" stroke-linecap="round" stroke-linejoin="round"/>
<path d="M34.9406 14.3378L36.0077 9.21535L34.4133 4.45703L22.3354 13.4212L26.9808 17.3509L33.547 19.2718L35.0034 17.5769L34.3756 17.125L35.38 16.2084L34.6016 15.6058L35.606 14.84L34.9406 14.3378Z" fill="#763D16" stroke="#763D16" stroke-linecap="round" stroke-linejoin="round"/>
<path d="M3.99268 9.21535L5.05984 14.3378L4.38188 14.84L5.38627 15.6058L4.62042 16.2084L5.62482 17.125L4.99707 17.5769L6.44089 19.2718L13.0071 17.3509L17.6524 13.4212L5.5746 4.45703L3.99268 9.21535Z" fill="#763D16" stroke="#763D16" stroke-linecap="round" stroke-linejoin="round"/>
<path d="M33.5467 19.2715L26.9805 17.3506L28.9767 20.3512L26.0012 26.1265L29.9184 26.0763H35.7564L33.5467 19.2715Z" fill="#F6851B" stroke="#F6851B" stroke-linecap="round" stroke-linejoin="round"/>
<path d="M13.0069 17.3506L6.44066 19.2715L4.2561 26.0763H10.0816L13.9862 26.1265L11.0232 20.3512L13.0069 17.3506Z" fill="#F6851B" stroke="#F6851B" stroke-linecap="round" stroke-linejoin="round"/>
<path d="M21.921 20.6655L22.3353 13.4213L24.2436 8.26123H15.769L17.6523 13.4213L18.0917 20.6655L18.2424 22.9505L18.2549 28.5751H21.7326L21.7577 22.9505L21.921 20.6655Z" fill="#F6851B" stroke="#F6851B" stroke-linecap="round" stroke-linejoin="round"/>
</svg>
