<svg width="16" height="16" viewBox="0 0 16 16" fill="none" xmlns="http://www.w3.org/2000/svg">
<path fill-rule="evenodd" clip-rule="evenodd" d="M0 8C0 3.58172 3.58172 0 8 0C12.4183 0 16 3.58172 16 8C16 12.4183 12.4183 16 8 16C3.58172 16 0 12.4183 0 8ZM8 1.45455C4.38505 1.45455 1.45455 4.38505 1.45455 8C1.45455 11.615 4.38505 14.5455 8 14.5455C11.615 14.5455 14.5455 11.615 14.5455 8C14.5455 4.38505 11.615 1.45455 8 1.45455ZM8.18781 5.10857C7.48876 4.98866 6.80515 5.39043 6.56978 6.0595C6.43649 6.4384 6.02128 6.63751 5.64238 6.50422C5.26348 6.37093 5.06437 5.95572 5.19766 5.57681C5.66839 4.23868 7.03561 3.43515 8.43371 3.67496C9.83167 3.91475 10.8529 5.12775 10.851 6.54609C10.8507 7.65908 10.0255 8.39408 9.43623 8.78692C9.11941 8.99813 8.80776 9.15344 8.57819 9.25547C8.46236 9.30695 8.36484 9.34601 8.29456 9.37278C8.25936 9.38619 8.23082 9.39658 8.21005 9.40397L8.18479 9.41282L8.17675 9.41556L8.17391 9.41652L8.1728 9.41689C8.17258 9.41697 8.17189 9.4172 7.9419 8.72725L8.17189 9.4172C7.79084 9.54421 7.37897 9.33828 7.25195 8.95723C7.12502 8.57644 7.33059 8.16486 7.71115 8.03755L7.72276 8.03348C7.73395 8.0295 7.75229 8.02285 7.77675 8.01353C7.82579 7.99485 7.89871 7.96573 7.98744 7.92629C8.16695 7.84651 8.40076 7.72909 8.62939 7.57666C9.13092 7.24231 9.39645 6.88662 9.39645 6.54543L9.39645 6.54434C9.39751 5.83509 8.88686 5.22847 8.18781 5.10857ZM8 11.6364C8.40166 11.6364 8.72727 11.3108 8.72727 10.9091C8.72727 10.5074 8.40166 10.1818 8 10.1818C7.59834 10.1818 7.27273 10.5074 7.27273 10.9091C7.27273 11.3108 7.59834 11.6364 8 11.6364Z" fill="#505A7A"/>
</svg>
